<svg width="228" height="67" viewBox="0 0 228 67" fill="none" xmlns="http://www.w3.org/2000/svg">
<g filter="url(#filter0_d_802_115)">
<path d="M26.412 8.068H10.228C9.412 8.068 8.8 8.714 8.8 9.496V57.572C8.8 58.354 9.412 59 10.228 59H17.368C18.15 59 18.796 58.354 18.796 57.572V35.132H26.888C33.518 35.132 37.36 31.358 37.36 24.762C37.36 18.608 33.518 14.8 27.364 14.8H17.368C16.552 14.8 15.94 15.446 15.94 16.228V26.972C15.94 27.754 16.552 28.4 17.368 28.4C18.15 28.4 18.796 27.754 18.796 26.972V17.656H27.364C31.954 17.656 34.504 20.24 34.504 24.762C34.504 28.842 32.77 32.276 26.888 32.276H17.368C16.552 32.276 15.94 32.922 15.94 33.704V56.144H11.656V10.924H26.412C40.148 10.924 41.644 20.58 41.644 24.762C41.644 33.33 36.34 39.008 27.67 39.008H24.508C23.692 39.008 23.08 39.654 23.08 40.436C23.08 41.218 23.692 41.864 24.508 41.864H27.67C38.346 41.864 44.5 34.486 44.5 24.762C44.5 15.956 39.23 8.068 26.412 8.068ZM84.994 49.412H61.126V10.924H65.41V44.108C65.41 44.89 66.056 45.536 66.838 45.536C67.62 45.536 68.266 44.89 68.266 44.108V9.496C68.266 8.714 67.62 8.068 66.838 8.068H59.698C58.916 8.068 58.27 8.714 58.27 9.496V50.84C58.27 51.622 58.916 52.268 59.698 52.268H83.566V56.144H59.698C58.916 56.144 58.27 56.79 58.27 57.572C58.27 58.354 58.916 59 59.698 59H84.994C85.776 59 86.422 58.354 86.422 57.572V50.84C86.422 50.058 85.776 49.412 84.994 49.412ZM120.406 8.068H113.402C112.484 8.068 111.702 8.612 111.396 9.462L101.026 38.022C100.754 38.77 101.298 39.586 102.114 39.586H124.35C125.166 39.586 125.71 38.77 125.438 38.022L117.89 17.248C117.72 16.806 117.312 16.568 116.904 16.568C116.496 16.568 116.088 16.772 115.918 17.248L110.92 30.95C110.58 31.868 111.294 32.854 112.28 32.854C112.858 32.854 113.402 32.48 113.606 31.902L116.904 22.892L121.936 36.73H104.528L113.912 10.924H119.896L136.352 56.144H132L127.92 44.856C127.614 44.006 126.832 43.462 125.914 43.462H100.516C99.5975 43.462 98.8155 44.006 98.5095 44.856L93.9535 57.436C93.6815 58.184 94.2255 59 95.0415 59H102.284C103.202 59 103.984 58.422 104.29 57.606L106.296 52.098C106.636 51.18 105.922 50.194 104.936 50.194C104.358 50.194 103.814 50.568 103.61 51.112L101.774 56.144H97.4555L101.026 46.318H125.404L129.484 57.606C129.79 58.422 130.572 59 131.49 59H138.766C139.582 59 140.126 58.184 139.854 57.436L122.412 9.462C122.106 8.612 121.324 8.068 120.406 8.068ZM161.116 17.656C161.898 17.656 162.544 17.01 162.544 16.228V9.496C162.544 8.714 161.898 8.068 161.116 8.068H153.976C153.194 8.068 152.548 8.714 152.548 9.496C152.548 10.278 153.194 10.924 153.976 10.924H159.688V14.8H153.976C153.194 14.8 152.548 15.446 152.548 16.228V57.572C152.548 58.354 153.194 59 153.976 59H161.116C161.898 59 162.544 58.354 162.544 57.572V22.96C162.544 22.178 161.898 21.532 161.116 21.532C160.334 21.532 159.688 22.178 159.688 22.96V56.144H155.404V17.656H161.116ZM209.945 59H218.411C219.261 59 219.737 58.082 219.295 57.368L203.349 32.514L218.003 9.7C218.139 9.496 218.173 9.326 218.173 9.122C218.173 8.578 217.731 8.068 217.119 8.068H208.687C207.871 8.068 207.089 8.476 206.647 9.19L197.501 23.402L188.321 9.156C187.879 8.476 187.097 8.068 186.281 8.068H177.849C177.237 8.068 176.795 8.578 176.795 9.122C176.795 9.326 176.863 9.53 176.965 9.7L187.981 26.802C188.253 27.244 188.695 27.448 189.171 27.448C189.953 27.448 190.599 26.802 190.599 26.02C190.599 25.748 190.531 25.476 190.361 25.238L181.147 10.924H186.043L196.515 27.176C196.753 27.516 197.127 27.686 197.501 27.686C197.875 27.686 198.249 27.516 198.487 27.176L208.925 10.924H213.821L200.731 31.324C200.493 31.698 200.357 32.106 200.357 32.514C200.357 32.922 200.493 33.364 200.731 33.704L215.113 56.144H210.183L194.305 31.426C194.067 31.052 193.693 30.882 193.319 30.882C192.945 30.882 192.571 31.052 192.333 31.426L175.673 57.368C175.231 58.082 175.707 59 176.557 59H185.023C185.839 59 186.621 58.592 187.063 57.878L194.543 46.25C194.713 46.012 194.781 45.74 194.781 45.468C194.781 44.686 194.135 44.04 193.353 44.04C192.877 44.04 192.435 44.244 192.163 44.686L184.785 56.144H179.855L193.319 35.166L207.905 57.878C208.347 58.592 209.129 59 209.945 59Z" fill="#68B6E1"/>
</g>
<defs>
<filter id="filter0_d_802_115" x="0.800049" y="0.0679932" width="226.937" height="66.932" filterUnits="userSpaceOnUse" color-interpolation-filters="sRGB">
<feFlood flood-opacity="0" result="BackgroundImageFix"/>
<feColorMatrix in="SourceAlpha" type="matrix" values="0 0 0 0 0 0 0 0 0 0 0 0 0 0 0 0 0 0 127 0" result="hardAlpha"/>
<feOffset/>
<feGaussianBlur stdDeviation="4"/>
<feComposite in2="hardAlpha" operator="out"/>
<feColorMatrix type="matrix" values="0 0 0 0 0.761198 0 0 0 0 0.907156 0 0 0 0 0.9875 0 0 0 0.4 0"/>
<feBlend mode="normal" in2="BackgroundImageFix" result="effect1_dropShadow_802_115"/>
<feBlend mode="normal" in="SourceGraphic" in2="effect1_dropShadow_802_115" result="shape"/>
</filter>
</defs>
</svg>
